<svg xmlns="http://www.w3.org/2000/svg" width="91px" height="91px" viewBox="0 0 100 100"><g data-name="Слой 2"><path class="cls-1" d="M14.704 82.355v1.154q0 3.287 2.77 5.926 1.503 1.44 5.507 1.44t5.682-2.133q.172-.23 2.22-7.843 2.05-7.613 4.613-10.526 2.567-2.912 10.008-2.912 14.187 0 16.869 2.45 2.682 2.452 5.16 10.355a31.399 31.399 0 011.267 5.55q.346 2.655.867 3.403 1.039 1.56 4.054 1.56a5.614 5.614 0 004.815-2.495 9.415 9.415 0 001.803-5.61q0-3.088-2.105-6.172a28.177 28.177 0 01-3.056-5.536q-.955-2.451-8.42-24.37Q59.29 24.68 56.721 19.263q-2.58-5.42-4.5-6.892-1.922-1.472-4.757-1.472a7.616 7.616 0 00-5.133 2.018q-2.305 2.02-4.962 7.728-.056.171-17.994 50.755a30.41 30.41 0 01-2.826 5.767q-1.843 3-1.846 5.19zm31.954-23.012q-8.767 0-8.767-1.672v-.346q0-.577.72-3.374.721-2.798.836-3.287a9.696 9.696 0 01.29-.98q.175-.492 1.7-7.035a73.176 73.176 0 013.951-12.2q2.424-5.651 2.77-5.651.346 0 2.018 4.15 9.686 24.23 9.69 28.667v.346q0 1.385-5.926 1.382h-3.88l-.518-.056-1.905.056z" data-name="Слой 1"/></g></svg>