<svg height="91" width="91" xmlns="http://www.w3.org/2000/svg" viewBox="0 0 100 100"><path d="M80.062 19.903c1.646-2.074.139-4.716-1.973-5.376.009-.002.016-.004.022-.004-.021-.004-.04-.004-.062-.009a3.156 3.156 0 00-2.454.249c-2.168.839-22.981 22.161-26.263 25.579-1.792 1.865-5.254 4.62-3.589 7.533.305.535 12.856 12.496 16.262 15.809 4.669 4.541 9.112 9.725 14.438 13.499 1.306.927 2.971-.874 2.16-2.162-3.948-6.266-24.997-28.543-25.339-28.934 1.049-1.04 25.938-24.517 26.798-26.184z"/><path d="M51.476.717c-3.154 1.191-32.299 31.116-37.038 35.986-2.691 2.769-7.148 6.22-6.431 10.486.189 1.117 1.031 2.097 2.023 2.728.367.375 34.475 34.777 42.558 40.507 1.877 1.332 4.268-1.257 3.104-3.104-5.551-8.81-35.755-40.814-36.414-41.531 1.397-1.384 37.272-35.233 38.53-37.656 2.339-2.993.142-6.791-2.905-7.709l.123-.033c-.154-.03-2.524-.199-3.55.326z"/></svg>