<svg height="91" width="91" xmlns="http://www.w3.org/2000/svg"><path d="M57.928 11.35c6.501 5.586 12.996 11.183 19.544 16.714 3.549 2.999 8.714-2.113 5.137-5.137-8.488-7.17-17.069-14.235-25.603-21.352-2.181-1.817-5.854-.74-5.835 2.417.067 12.104-.234 46.012-.287 50.868-10.675-4.578-25.346-.396-33.568 6.651-4.814 4.127-9.625 10.302-8.619 17.041.85 5.709 5.487 9.418 10.694 11.111 10.677 3.471 24.858.027 32.216-8.578 6.524-7.63 5.236-18.632 5.48-27.995.364-13.91.678-27.824.841-41.74zM31.921 84.666c-8.739 1.233-22.882-2.885-15.015-14.095 3.581-5.1 8.817-8.865 14.743-10.711 5.588-1.742 13.108-2.872 19.171-1.164-.069 3.294-.189 6.586-.417 9.858-.669 9.584-9.776 14.889-18.482 16.112z"/></svg>