<svg height="91" width="91" xmlns="http://www.w3.org/2000/svg" viewBox="0 0 100 100"><path d="M76.761 27.731c3.547 2.997 8.705-2.111 5.132-5.133C73.41 15.434 64.836 8.374 56.309 1.262c-2.18-1.816-5.848-.74-5.831 2.415.069 12.096-.234 45.978-.287 50.831-10.667-4.574-25.329-.396-33.543 6.646-4.812 4.124-9.618 10.294-8.614 17.028.85 5.705 5.482 9.411 10.687 11.104 10.669 3.469 24.84.027 32.196-8.572 6.518-7.624 5.229-18.617 5.475-27.974.202-7.778.392-15.558.55-23.338 2.28 2.042 15.885 15.975 18.668 17.589 3.511 2.04 8.811-2.351 6.006-6.003-3.29-4.282-20.438-16.759-24.539-19.104.062-3.618.111-7.234.153-10.854 6.496 5.581 12.988 11.174 19.531 16.701zm-45.52 56.561c-8.731 1.232-22.866-2.883-15.003-14.085 3.578-5.095 8.81-8.858 14.732-10.702 5.584-1.741 13.099-2.87 19.16-1.164-.072 3.292-.192 6.581-.42 9.852-.668 9.575-9.769 14.876-18.469 16.099z"/></svg>