<svg height="91" width="91" xmlns="http://www.w3.org/2000/svg"><path d="M90.426 7.596c1.145-1.698-1.151-3.291-2.352-3.612-.698-.187-1.424-.188-2.141-.238-2.22-.155-16.505-.35-21.322-.922-1.828-.219-3.512 1.452-4.01 3.052-1.131 3.633-1.12 19.573-.78 23.363.55 6.111 10.238 6.036 9.529 0-.428-3.66-.269-12.627-.291-13.348C79.174 25.75 84.9 41.395 81.358 54.949c-3.524 13.487-13.427 23.408-27.395 25.637-15.229 2.43-31.085-2.995-39.766-16.064-6.371-9.593-8.84-20.922-4.213-31.82 3.134-7.38 9.174-13.125 15.846-17.364 3.169-2.016 6.449-3.882 9.705-5.755 3.169-1.825 5.523-3.325 9.256-3.741.78-.086.789-1.319 0-1.234-6.875.766-13.522.529-19.978 3.542-7.591 3.544-14.223 9.222-18.72 16.305-8.115 12.781-7.265 28.025-.121 40.904 8.646 15.581 25.037 23.84 42.66 23.325C66.74 88.158 81.545 77.92 87.7 60.84c6.274-17.418.163-37.427-12.435-50.671 2.059-.065 13.498-.098 15.161-2.573z"/></svg>