<svg height="91" width="91" viewBox="0 0 100 100" xmlns="http://www.w3.org/2000/svg"><path d="M37.426 46.086c-.342.391-21.391 22.668-25.339 28.934-.811 1.288.854 3.089 2.16 2.162 5.325-3.774 9.769-8.958 14.438-13.499C32.09 60.37 44.642 48.41 44.947 47.874c1.665-2.913-1.797-5.667-3.589-7.533-3.281-3.418-24.095-24.74-26.263-25.579a3.165 3.165 0 00-2.454-.249c-.021.004-.041.004-.062.009.007 0 .014.002.022.004-2.111.66-3.619 3.302-1.973 5.376.86 1.668 25.75 25.145 26.798 26.184z"/><path d="M39.215.717c3.154 1.191 32.3 31.116 37.038 35.986 2.691 2.769 7.148 6.22 6.431 10.486-.188 1.117-1.03 2.097-2.023 2.728-.367.375-34.475 34.777-42.558 40.507-1.877 1.332-4.268-1.257-3.104-3.104 5.551-8.81 35.755-40.814 36.414-41.531-1.396-1.384-37.272-35.233-38.53-37.656-2.339-2.993-.142-6.791 2.905-7.709L35.665.39c.153-.029 2.523-.198 3.55.327z"/></svg>