<svg height="91" width="91" viewBox="0 0 100 100" xmlns="http://www.w3.org/2000/svg"><path d="M44.628 70.7c-.293 2.567-.539 5.141-.863 7.704-3.622.201-7.24.437-10.856.722-3.768.299-8.155.085-11.738 1.324-1.21.415-1.434 2.37 0 2.681 3.727.811 7.932.159 11.738.098 4.003-.064 28.884.219 36.677-.368 3.44-.261 3.48-5.175 0-5.383-7.307-.433-14.857.26-22.212.716-.032-2.501-.153-4.996-.477-7.47 5.489.044 10.979.045 16.468-.025 4.875-.062 9.746-.186 14.615-.397 3.446-.148 7.779.503 10.604-1.985 2.795-2.463 1.864-6.621 1.893-9.92.038-4.222.057-8.443.035-12.664-.051-10.809-.299-20.688-.747-31.487-.058-1.415-1.168-2.685-2.656-2.657-28.578.53-55.4.36-83.907-1.904-3.255-.259-3.873 3.812-1.87 5.541C.746 33.181.883 49.31.384 67.272c-.04 1.446 1.244 2.619 2.644 2.644 14.17.24 27.422.644 41.6.784zm39.936-53.741c.444 10.386.737 19.85.727 30.246-.005 4.873.231 16.662-.646 17.299-.506.369-8.16.548-11.163.647-22.9.756-44.872-.268-67.77-.497.275-16.808.255-31.792-.83-48.57 27.152 1.894 52.491 1.486 79.682.875z"/><path d="M35.352 55.821c2.927 1.638 7.128 5.345 10.733 4.29 4.385-1.283 8.742-4.434 12.772-6.563 3.537-1.867 6.119-2.723 6.13-7.014.017-5.261-.063-10.513.004-15.774.013-.868-.597-1.536-1.376-1.807-5.582-1.95-10.712-4.823-15.816-7.77-1.07-.62-2.103-.217-2.713.537-3.548 1.268-7.018 4.032-10.09 5.923-2.05 1.261-4.117 2.494-6.171 3.749-1.747 1.067-1.967 1.491-2.08 3.537-.137 2.53-.209 5.065-.316 7.597-.085 2.074-.517 4.388-.137 6.437.663 3.595 6.268 5.298 9.06 6.858zm-3.401-6.427c-1.367-1-1.642-1.241-1.779-3.069-.09-1.211.086-2.584.13-3.798.087-2.606.183-5.212.255-7.818.004-.003.009-.006.011-.009 2.07 1.675 4.683 2.919 6.898 4.199 2.097 1.212 4.611 3.204 7.182 3.472-.871 4.225-.844 8.928-1.097 13.221-1.306-.342-2.5-1.201-4.013-2.033-2.44-1.338-5.347-2.524-7.587-4.165zm29.371-2.229c-.741 2.174-5.419 3.559-7.277 4.478-2.011.996-4.051 2.204-6.126 3.151-.029-4.188.146-8.7-.566-12.78 1.924-.653 11.016-6.208 13.961-7.599.034 1.726.299 11.89.008 12.75zM39.208 29.04c1.955-1.297 4.322-2.604 6.276-4.176.042.024.074.054.118.077 4.253 2.234 8.521 4.436 12.984 6.19a70.52 70.52 0 00-4.132 2.174c-2.599 1.486-5.44 3.76-8.319 4.621-2.765.826-6.515-1.952-9.003-3.146-1.251-.602-2.557-1.267-3.895-1.81a931.168 931.168 0 005.971-3.93z"/></svg>