<svg height="91" width="91" xmlns="http://www.w3.org/2000/svg"><path d="M.553 40.656c-.878 6.689 3.811 12.924 10.273 14.14-.588 4.404-.541 8.957-.76 13.348-.292 5.868-1.312 12.224-.616 18.038.586 4.897 7.045 4.906 7.633 0 .698-5.813-.324-12.17-.616-18.038-.217-4.376-.171-8.915-.754-13.309 6.126-.909 11.207-5.365 11.572-12.029.374-6.82-4.081-11.881-9.983-13.928.174-4.829-.454-9.983-.898-14.692-.346-3.67-.372-7.513-1.56-11.018a1.65 1.65 0 00-3.154 0c-1.194 3.533-1.165 7.324-1.274 11.018-.161 5.337-1.283 10.851-1.063 16.187-4.462.792-8.258 6.166-8.8 10.283zm5.604-.328c.564-2.598 2.309-4.092 4.169-5.526.65.807 1.641 1.343 2.98 1.32 3.906-.068 8.037 2.391 7.551 6.771-.512 4.601-5.636 6.607-9.791 5.565-3.435-.862-5.655-4.702-4.909-8.13zM32.343 65.47c-.867 6.613 3.708 12.772 10.057 14.086-.04.265-1.211 5.969-1.2 6.365 0 .2.017.396.047.589.101 2.715 3.452 4.345 5.737 2.968 3.395-2.046 1.92-6.779 1.289-9.953 5.777-1.154 10.452-5.521 10.802-11.907.358-6.521-3.702-11.426-9.221-13.635.292-8.057-.568-16.348-.828-24.344-.29-8.936-.125-18.026-1.616-26.857-.263-1.563-2.891-1.563-3.155 0-1.491 8.831-1.326 17.922-1.615 26.857-.264 8.111-1.143 16.533-.812 24.698a4.11 4.11 0 00-.387.807c-4.589.599-8.543 6.117-9.098 10.326zm20.305 2.234c-.511 4.601-5.637 6.607-9.79 5.565-3.437-.86-5.656-4.699-4.911-8.13.564-2.598 2.309-4.09 4.17-5.526.526.654 1.279 1.123 2.256 1.27a3.943 3.943 0 002.359.174c3.334.539 6.334 2.879 5.916 6.647zM75.712 3.907c-.18.496-2.262 12.622-2.48 13.242-4.589.6-8.544 6.117-9.096 10.327-.926 7.043 4.324 13.57 11.313 14.278-.845 6.583-.776 13.322-1.02 19.936-.298 8.026-1.383 16.498-.621 24.492.465 4.902 7.165 4.91 7.63 0 .762-7.996-.324-16.464-.619-24.492-.246-6.67-.172-13.468-1.042-20.107 5.907-1.067 10.731-5.467 11.088-11.957.354-6.452-3.615-11.322-9.04-13.563-.121-1.791-.493-3.611-.673-5.094-.251-2.045-.168-8.363-3.094-8.944-1.32-.261-1.898.647-2.346 1.882zm8.726 25.803c-.511 4.601-5.635 6.607-9.789 5.565-3.438-.861-5.657-4.7-4.91-8.128.564-2.6 2.309-4.091 4.169-5.528.649.806 3.724 1.346 3.783 1.346 3.648.254 7.202 2.665 6.747 6.745z"/></svg>