<?xml version="1.0" ?><!DOCTYPE svg  PUBLIC '-//W3C//DTD SVG 1.1//EN'  'http://www.w3.org/Graphics/SVG/1.1/DTD/svg11.dtd'><svg enable-background="new 0 0 91 91" height="91px" id="Layer_1" version="1.1" viewBox="0 0 91 91" width="91px" xml:space="preserve" xmlns="http://www.w3.org/2000/svg" xmlns:xlink="http://www.w3.org/1999/xlink"><g><path d="M15.464,30.723c0.343-0.037,0.684-0.082,1.027-0.122c-0.474,4.487-0.731,9.004-0.938,13.504   c-0.304,6.73-1.351,13.971-0.8,20.687c0.494,6.028,5.519,6.497,10.482,6.553c3.364,0.037,12.804,0.042,14.024-0.288   c10.561,7.425,22.968,11.636,33.39,19.305c2.448,1.802,5.977-0.634,5.925-3.402c-0.542-27.744-1.77-55.509-1.173-83.264   c0.05-2.344-2.716-3.956-4.72-2.708C62.019,7.613,51.23,13.984,41.204,21.522c-0.928-1.161-2.354-1.909-4.59-1.947   c-6.953-0.12-14.195,1.115-21.15,1.535C9.234,21.487,9.405,31.41,15.464,30.723z M70.819,9.195   c-1.141,23.427,0.07,46.825-0.04,70.26C61.89,73.75,43.58,62.549,43.431,62.449c0.055-3.696,0.079-7.39,0.067-11.086   c-0.021-6.914-0.182-13.829-0.453-20.737c-0.069-1.762-0.091-3.644-0.371-5.348C51.762,19.45,61.354,14.396,70.819,9.195z    M34.465,28.542c0.344,3.244,0.405,18.5,0.467,22.821c0.025,1.729-0.412,9.705-0.055,11.596   c-1.837-0.357-12.466,0.127-12.583,0.116c-0.053-0.925-1.363-26.876-1.984-32.928C22.481,29.89,33.496,28.632,34.465,28.542z"/></g></svg>