<svg height="91" width="91" viewBox="0 0 100 100" xmlns="http://www.w3.org/2000/svg"><path d="M11.459 65.569c2.541.028 9.67.032 10.591-.217 7.978 5.607 17.348 8.788 25.219 14.58 1.852 1.361 4.515-.479 4.475-2.569-.408-20.955-1.334-41.926-.884-62.889.036-1.77-2.051-2.988-3.566-2.045-8.054 5.004-16.203 9.817-23.777 15.509-.701-.875-1.776-1.442-3.465-1.47-5.251-.09-10.722.843-15.975 1.159-4.705.285-4.577 7.779 0 7.261.258-.028.519-.063.777-.092-.36 3.389-.554 6.801-.709 10.199-.23 5.084-1.02 10.553-.603 15.625.373 4.554 4.169 4.908 7.917 4.949zm34.427-46.94c-.862 17.694.055 35.367-.028 53.068-6.714-4.31-20.545-12.77-20.658-12.845.042-2.792.059-5.582.051-8.373a435.127 435.127 0 00-.343-15.663c-.051-1.331-.068-2.752-.279-4.04 6.863-4.401 14.107-8.218 21.257-12.147zM18.43 33.242c.258 2.45.047 5.151.123 7.445.109 3.263-.081 17.122.187 18.549-1.386-.27-9.414.096-9.504.088-.04-.699-1.027-20.299-1.497-24.871 1.637-.194 9.957-1.143 10.691-1.211zM89.568 30.554c.666-1.103-.665-2.438-1.768-1.768-5.641 3.412-10.476 8.761-15.282 13.368-4.809-4.609-9.644-9.957-15.283-13.368-1.104-.667-2.434.665-1.768 1.768 3.378 5.591 8.778 10.318 13.49 14.946-4.604 4.313-9.176 8.655-13.619 13.141-2.458 2.48 1.354 6.294 3.832 3.832 4.476-4.441 8.909-8.922 13.348-13.4 4.438 4.479 8.871 8.959 13.346 13.4 2.479 2.462 6.29-1.35 3.834-3.832-4.446-4.486-9.016-8.828-13.62-13.141 4.714-4.628 10.112-9.355 13.49-14.946z"/></svg>